<svg width="59" height="58" viewBox="0 0 59 58" fill="none" xmlns="http://www.w3.org/2000/svg">
<path d="M5.20189 35.1383C4.23916 22.8352 12.3132 11.9169 24.2557 9.26634C25.0234 9.09595 25.3674 8.81834 25.3327 7.99726C25.278 6.70257 25.2949 5.40305 25.329 4.10682C25.3874 1.88827 27.0052 0.152238 29.1029 0.0106027C31.2688 -0.135647 33.157 1.24262 33.4857 3.43108C33.6987 4.84891 33.6767 6.31573 33.6224 7.75541C33.5835 8.78397 33.9011 9.19623 34.9422 9.44973C45.1368 11.932 52.031 19.4052 53.6466 29.7871C54.1887 33.2705 53.9127 36.7504 52.8461 40.1395C52.7131 40.562 52.5837 40.9856 52.4288 41.4856C53.7798 42.3043 55.1296 43.0447 56.3956 43.9082C58.1267 45.0891 58.6591 46.8751 57.9621 48.753C57.0942 51.0916 54.7575 52.1221 52.4983 51.0634C51.0603 50.3895 49.6977 49.5549 48.5983 48.9546C46.0403 50.8502 43.7583 52.8819 41.1731 54.396C31.7558 59.9115 18.8529 57.8097 11.6366 49.6783C10.8428 48.7839 10.3126 48.7842 9.41818 49.3541C8.37131 50.0213 7.28274 50.6535 6.14291 51.1375C4.11721 51.9978 2.09041 51.2143 1.0516 49.2956C0.0154597 47.3819 0.455018 45.2111 2.23572 43.9991C3.58632 43.0798 5.02717 42.2931 6.35023 41.4943C5.96037 39.3626 5.58648 37.3183 5.20189 35.1383ZM33.6439 19.9008C33.5235 22.5641 34.3452 25.4918 31.3266 27.3674C34.2807 28.5845 35.4163 30.8256 35.513 33.6045C40.3995 32.9554 43.1947 37.1391 47.1956 38.3048C50.8931 27.9792 42.8762 16.3488 33.6439 15.4256C33.6439 16.8252 33.6439 18.2141 33.6439 19.9008ZM17.3361 19.0691C11.1018 24.3414 9.66956 33.426 12.0073 38.2652C13.9983 37.1332 16.0192 36.0561 17.9644 34.8564C19.6602 33.8104 21.3527 32.9923 23.4882 33.8854C23.3546 30.6364 24.8275 28.5988 27.6459 27.3335C25.7211 26.1589 25.2215 24.4606 25.2994 22.4191C25.39 20.0413 25.3204 17.6574 25.3204 15.1065C22.2327 15.7051 19.7395 17.0533 17.3361 19.0691M24.7193 40.2015C24.217 40.5998 23.7512 41.0588 23.2062 41.3859C20.8369 42.8083 18.4445 44.1923 16.0394 45.6026C23.1607 53.8559 36.7553 53.0435 42.7998 45.5914C41.673 44.9434 40.5157 44.375 39.4637 43.6532C37.0871 42.0228 33.7551 41.5081 33.0434 37.9799C30.4685 39.3641 28.1052 39.3975 25.834 37.8509C25.4951 38.5968 25.1707 39.3106 24.7193 40.202M26.7019 22.9978C26.9802 25.2164 27.9834 26.333 29.614 26.2391C31.1504 26.1507 32.1787 25.0858 32.1886 23.3237C32.2242 16.9972 32.237 10.6698 32.149 4.34428C32.1379 3.56221 31.6648 2.47189 31.0536 2.09436C30.3269 1.64539 29.1577 1.56015 28.2917 1.77224C27.0216 2.0833 26.6915 3.26496 26.6927 4.50626C26.6989 10.5812 26.6952 16.6562 26.7014 22.9978M4.32015 44.3666C2.10494 45.5947 1.40402 47.0379 2.25334 48.6222C3.15257 50.2995 4.75622 50.4883 6.99094 49.2025C9.83669 47.5651 12.691 45.9426 15.5405 44.3116C17.8733 42.9763 20.2295 41.6795 22.5278 40.2871C24.2069 39.2698 24.6016 37.7119 23.7053 36.2121C22.9073 34.8769 21.4169 34.5666 19.7851 35.4969C14.6857 38.4044 9.60514 41.345 4.32015 44.3666ZM53.3672 43.6569C52.1851 43.0198 50.9868 42.4107 49.8238 41.7404C46.2022 39.6533 42.6038 37.5258 38.9756 35.4503C37.5528 34.6363 36.2612 34.8383 35.314 35.8999C34.0024 37.3699 34.4992 39.18 36.6235 40.4132C39.9367 42.3367 43.2802 44.2079 46.603 46.115C48.6748 47.3041 50.7018 48.5752 52.8066 49.7017C54.233 50.4651 55.7364 50.0114 56.48 48.7868C57.2575 47.5065 56.9075 45.8854 55.6095 44.9858C54.9571 44.5336 54.2448 44.1678 53.3672 43.6569ZM39.3958 53.7175C42.1942 52.2918 44.7602 50.5732 46.8238 47.9625C45.9109 47.4535 45.1398 47.0236 44.2808 46.5447C40.1816 50.6463 35.2989 52.9854 29.4738 52.9575C23.6528 52.9297 18.7377 50.6852 14.6953 46.3888C13.8006 46.9144 12.9547 47.4114 11.857 48.0563C12.853 48.9685 13.6509 49.7919 14.5409 50.4997C22.0931 56.5064 30.3257 57.5607 39.3958 53.7175ZM49.1246 29.4411C49.0823 32.0144 49.2899 34.6258 48.9065 37.1473C48.6656 38.7311 48.6841 39.6971 50.2808 40.2438C50.5461 40.3346 50.7886 40.492 51.0489 40.6222C56.3144 27.2867 46.3705 12.3083 33.8689 10.7874C33.4508 13.4343 33.466 13.3916 35.8447 14.2372C42.999 16.7806 47.3773 21.7987 49.1246 29.4411ZM20.039 12.1941C7.75298 17.8864 4.15047 31.5907 7.91385 40.5082C8.22737 40.3685 8.53316 40.2118 8.85311 40.0933C10.1225 39.6232 10.5454 38.8741 10.0838 37.4832C9.71414 36.3695 9.58928 35.1419 9.54581 33.9579C9.20145 24.5774 15.0372 16.5418 24.0904 13.9538C25.05 13.6794 25.4144 13.2528 25.3092 12.2982C25.252 11.7798 25.2992 11.25 25.2992 10.4029C23.4217 11.0281 21.8306 11.5579 20.0392 12.1941M33.4029 30.7859C31.7017 28.5364 29.2061 27.8881 27.1487 29.1611C25.0056 30.4872 24.2807 33.1418 25.478 35.2787C26.6759 37.4168 29.1951 38.2246 31.3979 37.1769C33.7593 36.0539 34.5919 33.6078 33.4029 30.7859Z" fill="white"/>
</svg>
